<svg width="64" height="64" viewBox="0 0 64 64" fill="none" xmlns="http://www.w3.org/2000/svg">
  <circle cx="32" cy="32" r="24" fill="#00ADD8" />
  <path d="M20 32C20 25.3726 25.3726 20 32 20C38.6274 20 44 25.3726 44 32C44 38.6274 38.6274 44 32 44C29 44 26.2 42.9 24 41L20 45C23.5 48.5 28.5 50.5 34 50.5C43 50.5 50.5 43 50.5 34C50.5 25 43 17.5 34 17.5C25 17.5 17.5 25 17.5 34C17.5 35 17.5 36 17.75 37L20 34.75V32Z" fill="white" />
  <circle cx="32" cy="32" r="8" fill="white" />
  <path d="M32 28C29.8 28 28 29.8 28 32C28 34.2 29.8 36 32 36C34.2 36 36 34.2 36 32C36 29.8 34.2 28 32 28ZM32 34C30.9 34 30 33.1 30 32C30 30.9 30.9 30 32 30C33.1 30 34 30.9 34 32C34 33.1 33.1 34 32 34Z" fill="#00ADD8" />
</svg>
